<mxfile host="app.diagrams.net" agent="Mozilla/5.0 (Windows NT 10.0; Win64; x64) AppleWebKit/537.36 (KHTML, like Gecko) Chrome/129.0.0.0 Safari/537.36" version="24.7.14" pages="3">
  <diagram id="__hF6jtXIEPrzyk44zcN" name="LE4.1">
    <mxGraphModel dx="1050" dy="653" grid="1" gridSize="10" guides="1" tooltips="1" connect="1" arrows="1" fold="1" page="0" pageScale="1" pageWidth="850" pageHeight="1100" math="0" shadow="0">
      <root>
        <mxCell id="0" />
        <mxCell id="1" parent="0" />
      </root>
    </mxGraphModel>
  </diagram>
  <diagram id="B0UeWx64Hhw7liJx4GVb" name="LE4.2">
    <mxGraphModel dx="1050" dy="653" grid="1" gridSize="10" guides="1" tooltips="1" connect="1" arrows="1" fold="1" page="0" pageScale="1" pageWidth="850" pageHeight="1100" math="0" shadow="0">
      <root>
        <mxCell id="0" />
        <mxCell id="1" parent="0" />
      </root>
    </mxGraphModel>
  </diagram>
  <diagram name="LE4.1" id="IFCFGSX_gXjUEhNqbH4A">
    <mxGraphModel dx="1050" dy="1453" grid="1" gridSize="10" guides="1" tooltips="1" connect="1" arrows="1" fold="1" page="0" pageScale="1" pageWidth="850" pageHeight="1100" math="0" shadow="0">
      <root>
        <mxCell id="0" />
        <mxCell id="1" parent="0" />
        <mxCell id="g0UkTI3SXkOVS5y7Jd0t-1" value="START" style="rounded=1;whiteSpace=wrap;html=1;" vertex="1" parent="1">
          <mxGeometry x="160" y="-520" width="120" height="60" as="geometry" />
        </mxCell>
        <mxCell id="g0UkTI3SXkOVS5y7Jd0t-2" value="GET firstMark, secondMark, thirdMark, fourthMark" style="shape=parallelogram;perimeter=parallelogramPerimeter;whiteSpace=wrap;html=1;fixedSize=1;" vertex="1" parent="1">
          <mxGeometry x="65" y="-390" width="310" height="40" as="geometry" />
        </mxCell>
        <mxCell id="g0UkTI3SXkOVS5y7Jd0t-3" value="(firstMark &amp;lt; 0 ||&amp;nbsp;firstMark &amp;gt; 100)&amp;nbsp;&lt;div&gt;|| (secondMark &amp;lt; 0 || secondMark &amp;gt; 100) || (thirdMark &amp;lt; 0 || thirdMark &amp;gt; 100) || (fourthMark &amp;lt; 0 || fourthMark &amp;gt; 100)&lt;/div&gt;&lt;div&gt;?&lt;/div&gt;" style="rhombus;whiteSpace=wrap;html=1;" vertex="1" parent="1">
          <mxGeometry x="40" y="-290" width="360" height="180" as="geometry" />
        </mxCell>
        <mxCell id="g0UkTI3SXkOVS5y7Jd0t-4" value="" style="endArrow=classic;html=1;rounded=0;fontSize=12;startSize=8;endSize=8;curved=1;exitX=0.5;exitY=1;exitDx=0;exitDy=0;entryX=0.5;entryY=0;entryDx=0;entryDy=0;" edge="1" parent="1" source="g0UkTI3SXkOVS5y7Jd0t-1" target="g0UkTI3SXkOVS5y7Jd0t-2">
          <mxGeometry width="50" height="50" relative="1" as="geometry">
            <mxPoint x="180" y="-240" as="sourcePoint" />
            <mxPoint x="230" y="-290" as="targetPoint" />
          </mxGeometry>
        </mxCell>
        <mxCell id="g0UkTI3SXkOVS5y7Jd0t-5" value="" style="endArrow=classic;html=1;rounded=0;fontSize=12;startSize=8;endSize=8;curved=1;exitX=0.5;exitY=1;exitDx=0;exitDy=0;entryX=0.5;entryY=0;entryDx=0;entryDy=0;" edge="1" parent="1" source="g0UkTI3SXkOVS5y7Jd0t-2" target="g0UkTI3SXkOVS5y7Jd0t-3">
          <mxGeometry width="50" height="50" relative="1" as="geometry">
            <mxPoint x="180" y="-240" as="sourcePoint" />
            <mxPoint x="230" y="-290" as="targetPoint" />
          </mxGeometry>
        </mxCell>
        <mxCell id="g0UkTI3SXkOVS5y7Jd0t-6" value="DISPLAY &quot;INVALID INPUT!&quot;" style="shape=parallelogram;perimeter=parallelogramPerimeter;whiteSpace=wrap;html=1;fixedSize=1;" vertex="1" parent="1">
          <mxGeometry x="490" y="-220" width="200" height="40" as="geometry" />
        </mxCell>
        <mxCell id="g0UkTI3SXkOVS5y7Jd0t-7" value="" style="endArrow=classic;html=1;rounded=0;fontSize=12;startSize=8;endSize=8;curved=1;entryX=0;entryY=0.5;entryDx=0;entryDy=0;exitX=1;exitY=0.5;exitDx=0;exitDy=0;" edge="1" parent="1" source="g0UkTI3SXkOVS5y7Jd0t-3" target="g0UkTI3SXkOVS5y7Jd0t-6">
          <mxGeometry width="50" height="50" relative="1" as="geometry">
            <mxPoint x="180" y="-240" as="sourcePoint" />
            <mxPoint x="230" y="-290" as="targetPoint" />
          </mxGeometry>
        </mxCell>
        <mxCell id="g0UkTI3SXkOVS5y7Jd0t-8" value="YES" style="text;html=1;align=center;verticalAlign=middle;whiteSpace=wrap;rounded=0;fontSize=16;" vertex="1" parent="1">
          <mxGeometry x="410" y="-230" width="60" height="30" as="geometry" />
        </mxCell>
        <mxCell id="g0UkTI3SXkOVS5y7Jd0t-9" value="NO" style="text;html=1;align=center;verticalAlign=middle;whiteSpace=wrap;rounded=0;fontSize=16;" vertex="1" parent="1">
          <mxGeometry x="210" y="-90" width="60" height="30" as="geometry" />
        </mxCell>
        <mxCell id="hak5jao_v4Q0g6EsJZJk-1" value="" style="endArrow=classic;html=1;rounded=0;fontSize=12;startSize=8;endSize=8;curved=1;exitX=0.5;exitY=1;exitDx=0;exitDy=0;entryX=0.5;entryY=0;entryDx=0;entryDy=0;" edge="1" parent="1">
          <mxGeometry width="50" height="50" relative="1" as="geometry">
            <mxPoint x="219.5" y="-110" as="sourcePoint" />
            <mxPoint x="219.5" y="-50" as="targetPoint" />
          </mxGeometry>
        </mxCell>
        <mxCell id="hak5jao_v4Q0g6EsJZJk-2" value="COMPUTE finalGrade = (firstMark + secondMark + thirdMark + fourthMark) / 4" style="rounded=0;whiteSpace=wrap;html=1;" vertex="1" parent="1">
          <mxGeometry x="100" y="-50" width="240" height="60" as="geometry" />
        </mxCell>
        <mxCell id="EKmnEMfK2PZ9lp1eoyN4-1" value="DISPLAY finalGrade" style="shape=parallelogram;perimeter=parallelogramPerimeter;whiteSpace=wrap;html=1;fixedSize=1;" vertex="1" parent="1">
          <mxGeometry x="130" y="60" width="180" height="40" as="geometry" />
        </mxCell>
        <mxCell id="EKmnEMfK2PZ9lp1eoyN4-2" value="" style="endArrow=classic;html=1;rounded=0;fontSize=12;startSize=8;endSize=8;curved=1;entryX=0.5;entryY=0;entryDx=0;entryDy=0;exitX=0.5;exitY=1;exitDx=0;exitDy=0;" edge="1" parent="1" source="hak5jao_v4Q0g6EsJZJk-2" target="EKmnEMfK2PZ9lp1eoyN4-1">
          <mxGeometry width="50" height="50" relative="1" as="geometry">
            <mxPoint x="180" y="30" as="sourcePoint" />
            <mxPoint x="230" y="-20" as="targetPoint" />
          </mxGeometry>
        </mxCell>
        <mxCell id="EKmnEMfK2PZ9lp1eoyN4-3" value="" style="endArrow=classic;html=1;rounded=0;fontSize=12;startSize=8;endSize=8;curved=1;entryX=0.5;entryY=0;entryDx=0;entryDy=0;exitX=0.5;exitY=1;exitDx=0;exitDy=0;" edge="1" parent="1">
          <mxGeometry width="50" height="50" relative="1" as="geometry">
            <mxPoint x="219.5" y="100" as="sourcePoint" />
            <mxPoint x="219.5" y="150" as="targetPoint" />
          </mxGeometry>
        </mxCell>
        <mxCell id="EKmnEMfK2PZ9lp1eoyN4-4" value="finalGrade &amp;gt;= 50 &amp;amp;&amp;amp; finalGrade &amp;lt;= 100&lt;div&gt;?&lt;/div&gt;" style="rhombus;whiteSpace=wrap;html=1;" vertex="1" parent="1">
          <mxGeometry x="70" y="150" width="300" height="110" as="geometry" />
        </mxCell>
        <mxCell id="EKmnEMfK2PZ9lp1eoyN4-5" value="YES" style="text;html=1;align=center;verticalAlign=middle;whiteSpace=wrap;rounded=0;fontSize=16;" vertex="1" parent="1">
          <mxGeometry x="375" y="180" width="60" height="30" as="geometry" />
        </mxCell>
        <mxCell id="EKmnEMfK2PZ9lp1eoyN4-6" value="DISPLAY &quot;REMARKS: PASSED&quot;" style="shape=parallelogram;perimeter=parallelogramPerimeter;whiteSpace=wrap;html=1;fixedSize=1;" vertex="1" parent="1">
          <mxGeometry x="460" y="185" width="220" height="40" as="geometry" />
        </mxCell>
        <mxCell id="EKmnEMfK2PZ9lp1eoyN4-7" value="" style="endArrow=classic;html=1;rounded=0;fontSize=12;startSize=8;endSize=8;curved=1;entryX=0;entryY=0.5;entryDx=0;entryDy=0;exitX=1;exitY=0.5;exitDx=0;exitDy=0;" edge="1" parent="1" source="EKmnEMfK2PZ9lp1eoyN4-4" target="EKmnEMfK2PZ9lp1eoyN4-6">
          <mxGeometry width="50" height="50" relative="1" as="geometry">
            <mxPoint x="180" y="50" as="sourcePoint" />
            <mxPoint x="230" as="targetPoint" />
          </mxGeometry>
        </mxCell>
        <mxCell id="EKmnEMfK2PZ9lp1eoyN4-8" value="NO" style="text;html=1;align=center;verticalAlign=middle;whiteSpace=wrap;rounded=0;fontSize=16;" vertex="1" parent="1">
          <mxGeometry x="210" y="270" width="60" height="30" as="geometry" />
        </mxCell>
        <mxCell id="EKmnEMfK2PZ9lp1eoyN4-10" value="DISPLAY &quot;REMARKS: FAILED&quot;" style="shape=parallelogram;perimeter=parallelogramPerimeter;whiteSpace=wrap;html=1;fixedSize=1;" vertex="1" parent="1">
          <mxGeometry x="110" y="320" width="220" height="40" as="geometry" />
        </mxCell>
        <mxCell id="EKmnEMfK2PZ9lp1eoyN4-11" value="" style="endArrow=classic;html=1;rounded=0;fontSize=12;startSize=8;endSize=8;curved=1;entryX=0.5;entryY=0;entryDx=0;entryDy=0;exitX=0.5;exitY=1;exitDx=0;exitDy=0;" edge="1" parent="1" source="EKmnEMfK2PZ9lp1eoyN4-4" target="EKmnEMfK2PZ9lp1eoyN4-10">
          <mxGeometry width="50" height="50" relative="1" as="geometry">
            <mxPoint x="180" y="250" as="sourcePoint" />
            <mxPoint x="230" y="200" as="targetPoint" />
          </mxGeometry>
        </mxCell>
        <mxCell id="EKmnEMfK2PZ9lp1eoyN4-12" value="STOP" style="rounded=1;whiteSpace=wrap;html=1;" vertex="1" parent="1">
          <mxGeometry x="160" y="420" width="120" height="60" as="geometry" />
        </mxCell>
        <mxCell id="EKmnEMfK2PZ9lp1eoyN4-13" value="" style="endArrow=classic;html=1;rounded=0;fontSize=12;startSize=8;endSize=8;curved=1;entryX=0.5;entryY=0;entryDx=0;entryDy=0;exitX=0.5;exitY=1;exitDx=0;exitDy=0;" edge="1" parent="1">
          <mxGeometry width="50" height="50" relative="1" as="geometry">
            <mxPoint x="219.5" y="360" as="sourcePoint" />
            <mxPoint x="219.5" y="420" as="targetPoint" />
          </mxGeometry>
        </mxCell>
        <mxCell id="EKmnEMfK2PZ9lp1eoyN4-14" value="X" style="ellipse;whiteSpace=wrap;html=1;aspect=fixed;" vertex="1" parent="1">
          <mxGeometry x="700" y="370" width="30" height="30" as="geometry" />
        </mxCell>
        <mxCell id="EKmnEMfK2PZ9lp1eoyN4-16" value="" style="endArrow=classic;html=1;rounded=0;fontSize=12;startSize=8;endSize=8;curved=1;exitX=0;exitY=0.5;exitDx=0;exitDy=0;" edge="1" parent="1" source="EKmnEMfK2PZ9lp1eoyN4-14">
          <mxGeometry width="50" height="50" relative="1" as="geometry">
            <mxPoint x="580" y="350" as="sourcePoint" />
            <mxPoint x="220" y="390" as="targetPoint" />
          </mxGeometry>
        </mxCell>
        <mxCell id="EKmnEMfK2PZ9lp1eoyN4-17" value="" style="endArrow=none;html=1;rounded=0;fontSize=12;startSize=8;endSize=8;curved=1;exitX=1;exitY=0.5;exitDx=0;exitDy=0;" edge="1" parent="1" source="g0UkTI3SXkOVS5y7Jd0t-6">
          <mxGeometry width="50" height="50" relative="1" as="geometry">
            <mxPoint x="580" y="110" as="sourcePoint" />
            <mxPoint x="720" y="-200" as="targetPoint" />
          </mxGeometry>
        </mxCell>
        <mxCell id="EKmnEMfK2PZ9lp1eoyN4-18" value="" style="endArrow=classic;html=1;rounded=0;fontSize=12;startSize=8;endSize=8;curved=1;entryX=0.5;entryY=0;entryDx=0;entryDy=0;" edge="1" parent="1" target="EKmnEMfK2PZ9lp1eoyN4-14">
          <mxGeometry width="50" height="50" relative="1" as="geometry">
            <mxPoint x="720" y="-200" as="sourcePoint" />
            <mxPoint x="790" y="70" as="targetPoint" />
          </mxGeometry>
        </mxCell>
        <mxCell id="EKmnEMfK2PZ9lp1eoyN4-19" value="" style="endArrow=classic;html=1;rounded=0;fontSize=12;startSize=8;endSize=8;curved=1;exitX=1;exitY=0.5;exitDx=0;exitDy=0;" edge="1" parent="1" source="EKmnEMfK2PZ9lp1eoyN4-6">
          <mxGeometry width="50" height="50" relative="1" as="geometry">
            <mxPoint x="580" y="110" as="sourcePoint" />
            <mxPoint x="720" y="205" as="targetPoint" />
          </mxGeometry>
        </mxCell>
      </root>
    </mxGraphModel>
  </diagram>
</mxfile>
